<?xml version="1.0" encoding="UTF-8"?>
<!DOCTYPE svg PUBLIC "-//W3C//DTD SVG 1.1//EN" "http://www.w3.org/Graphics/SVG/1.1/DTD/svg11.dtd">
<!-- Creator: CorelDRAW -->
<svg xmlns="http://www.w3.org/2000/svg" xml:space="preserve" width="78.9107mm" height="42.9188mm" version="1.1" style="shape-rendering:geometricPrecision; text-rendering:geometricPrecision; image-rendering:optimizeQuality; fill-rule:evenodd; clip-rule:evenodd"
viewBox="0 0 7996.67 4349.32"
 xmlns:xlink="http://www.w3.org/1999/xlink"
 xmlns:xodm="http://www.corel.com/coreldraw/odm/2003">
 <defs>
  <style type="text/css">
   <![CDATA[
    .fil0 {fill:#BDBFC1}
    .fil1 {fill:#292929}
   ]]>
  </style>
 </defs>
 <g id="Layer_x0020_1">
  <metadata id="CorelCorpID_0Corel-Layer"/>
  <path class="fil0" d="M3716.48 1227.42l1.41 1955.23c-1.24,92.07 -1.36,182.05 3.67,273.99 16.14,295.63 -68.79,296.19 129.26,293.36l374.87 0.7c117.81,1.55 93.95,14.19 94.13,-294.06l1.86 -1842.44 804.42 1140.09c21.72,32.87 45.31,63.84 65.01,96.66 38.63,64.36 144.44,279.3 191.82,304.21 40.23,-16.2 44.58,-44.79 65.86,-81.57l181.55 -304.05c28.76,-39.7 39.13,-63.22 62.04,-99.71 22.69,-36.13 37.63,-55.39 65.81,-95.54 20.16,-28.71 38.9,-65.1 61.85,-100.35l521.34 -761.79c31.69,-54.24 43.64,-49.05 73.47,-88.08l0.22 1994.47c0.22,21.45 -2.51,57.97 -1.37,76.77 4.24,69.74 -44.14,54.68 239.5,54.43l355.64 0.74c21.85,-151.69 12.9,-2662.12 5.65,-3093.33 -69.9,-22.36 -495.17,-10.45 -610.36,-10.6 -109.39,0.06 -117.5,57.37 -170.08,137.45l-179.65 268.07c-21.32,31.87 -38.44,62.93 -56.91,92.69 -42.11,67.86 -82.19,131.13 -121.9,189.16 -124.45,181.79 -236.07,369.36 -366.68,542.54 -21.52,28.54 -96.89,166.26 -125.98,183.34 -30.94,-9.23 -43.41,-39.96 -63.34,-71.5 -23.72,-37.55 -29.02,-58.04 -58.64,-90.94 -49.92,-55.46 -182.64,-283.87 -241.89,-355.89l-241.44 -356.12c-24.6,-39.41 -33.72,-44.81 -63.88,-85.3l-115.6 -183.3c-22.55,-36.68 -37.57,-49.34 -61.07,-88.31 -23.82,-39.48 -25.42,-56.17 -57.09,-92.29 -28.38,-32.36 -48.38,-57.19 -68.43,-85.24 -823.17,-7.37 -684.03,-55.79 -691.19,202.89 -3.43,123.94 -4.44,249.6 -3.88,373.61z"/>
  <path class="fil1" d="M1578.27 1364.42c-0.04,-106.8 -24.37,-147.65 81.01,-148.44 226.93,-0.66 473.02,-8.87 697.74,-0.48 569.53,21.26 590.84,586.72 430.91,792.27 -19.99,25.69 -26.04,27.63 -40.66,45.83 -102.14,127.1 -234.8,181.23 -415.5,181.43 -148.77,0.15 -589.46,10.08 -738.14,-6.21 -30.17,-69.14 -15.35,-736.92 -15.37,-864.4zm-574.92 2378.65c57.71,15.99 547.71,14.71 576.21,-3.85 1.55,-2.29 3.02,-9.12 3.34,-7.59l5.55 -16.97c22.59,-123.38 -14.31,-962.66 26.56,-899.11 1.95,3.02 7.33,-3.76 10.09,-4.58 64.9,-19.23 711.95,-7.76 781.92,-8.09 209.59,-0.98 481.07,-109.02 602.25,-200.62l203.82 -194.46c71.27,-88.66 107.64,-139.14 157.45,-253.99 150.16,-346.25 80.18,-667.43 -57.39,-986.25 -30.99,-71.82 -24.98,-29.83 -80.75,-118.27 -17.14,-27.16 -79.44,-96.1 -100.79,-111.08 -40.57,-28.45 -21.22,-0.83 -60.79,-39.11 -84.58,-81.79 -0.88,-37.89 -179.51,-119.98 -397.45,-182.67 -641.53,-128.94 -1095.05,-128.9 -138.98,0.02 -716.51,-16.93 -805.62,7.97 -17.01,136.51 -3.44,1294.51 -3.86,1540.65 -0.35,206.65 -28.55,1461.3 16.56,1544.25z"/>
  <path class="fil1" d="M1000.54 4339.7l12.83 -356.06c-152.62,-26.74 -462.37,42.36 -553.74,-49.55 -67.6,-67.99 -33.82,-445.58 -33.96,-564.63l-0.17 -2391.11c0.35,-791.86 -100.66,-570.02 589.11,-619.5 -0.88,-69.23 -8.14,-134.02 -6.75,-202.5 1.77,-86.76 32.79,-146.01 -56.42,-151.49 -160.44,-9.88 -640.92,-9.53 -789.31,48.65 -115.84,45.43 -159.87,109.69 -158.79,264.42l1.11 2503.57c2.02,273.39 -9.11,563.89 1.3,834.4 7.29,189.37 -40.62,435.35 54.34,565.36 47.83,65.51 42.89,52.15 132.85,78.76 182.06,53.85 603.17,57.53 807.6,39.68z"/>
  <path class="fil1" d="M7621.05 2801.57c-232.1,28.78 -286.05,364.9 -162.16,572.9 48.37,81.21 234.43,84.74 120.57,400.67 -14.59,40.49 -61.64,152.46 -54.84,189.04 11.28,60.64 68.98,112.24 148.09,79.27 60.21,-25.1 94.98,-63.32 122.49,-116.82 99.35,-193.29 157.57,-264.5 196.84,-538.79 17.57,-122.76 -16.85,-311.41 -68.77,-403.63 -63.49,-112.76 -128.06,-204.23 -302.21,-182.63z"/>
  <path class="fil1" d="M7587.28 1835.42c-155.72,61.87 -198.45,223.56 -174.23,387.72 20.32,137.67 190.37,263.34 366.35,192.11 336.98,-136.39 136.96,-710.57 -192.12,-579.83z"/>
 </g>
</svg>
