<svg width="530" height="572" viewBox="0 0 530 572" fill="none" xmlns="http://www.w3.org/2000/svg">
<path d="M515.447 0H14C7.37258 0 2 5.37261 2 12V513.447C2 520.074 7.37261 525.447 14 525.447H515.447C522.074 525.447 527.447 520.074 527.447 513.447V12C527.447 5.37258 522.074 0 515.447 0Z" stroke="white" stroke-width="4" stroke-miterlimit="10"/>
<path d="M387.02 522.07C387.244 524.013 387.342 525.36 387.32 526.083H113.312C113.292 525.972 113.276 525.815 113.266 525.607C113.245 525.184 113.248 524.584 113.277 523.81C113.336 522.266 113.501 520.055 113.783 517.242C114.348 511.617 115.382 503.598 116.979 493.71C120.172 473.934 125.614 446.687 134.042 416.172C150.9 355.134 179.699 281.053 226.328 227.502L226.1 227.303L226.328 227.502C235.045 217.489 251.329 213.909 266.212 213.877C273.641 213.86 280.692 214.728 286.228 216.105C288.997 216.793 291.379 217.606 293.237 218.495C295.105 219.389 296.407 220.342 297.06 221.29C309.384 239.182 321.263 266.539 332.132 297.696C342.998 328.848 352.847 363.775 361.117 396.793C369.388 429.811 376.079 460.916 380.63 484.421C382.905 496.174 384.645 506.025 385.781 513.264C386.348 516.884 386.764 519.849 387.02 522.07ZM113.346 526.219C113.346 526.219 113.345 526.219 113.345 526.218L113.346 526.219Z" fill="black" stroke="white" stroke-width="0.640852"/>
<path d="M374.051 451.895L374.639 452.084L374.455 451.495C373.874 449.634 373.183 446.454 372.301 442.177C372.066 441.032 371.816 439.81 371.552 438.514C370.831 434.979 370 430.902 369.029 426.38C366.374 414.023 362.67 398.339 357.305 381.282C344.556 340.746 323.261 287.487 311.217 257.364C308.166 249.732 305.708 243.585 304.134 239.506C302.952 236.445 302.4 234.12 302.354 232.429C302.308 230.739 302.767 229.749 303.527 229.241C304.306 228.72 305.505 228.631 307.104 228.997C308.691 229.359 310.606 230.154 312.755 231.304C321.353 235.906 333.431 246.053 342.524 255.937C360.045 274.985 391.855 318.125 420.227 362.887C434.412 385.267 447.733 408.044 457.976 428.412C468.224 448.789 475.375 466.723 477.246 479.424C478.57 488.406 475.379 498 469.239 507.259C463.101 516.514 454.036 525.403 443.67 532.955C433.306 540.507 421.655 546.715 410.357 550.614C399.054 554.516 388.132 556.098 379.213 554.433C346.15 548.264 308.906 535.352 277.748 522.532C246.585 509.711 221.542 496.994 212.877 491.229L212.877 491.229C211.64 490.407 211.135 488.84 211.359 486.579C211.583 484.323 212.53 481.466 214.078 478.212C217.173 471.709 222.632 463.707 229.322 455.928C236.011 448.149 243.918 440.607 251.898 435.017C259.887 429.42 267.908 425.81 274.835 425.828C279.354 425.839 287.806 427.464 297.979 429.913C308.138 432.359 319.977 435.616 331.248 438.873C342.519 442.13 353.22 445.386 361.103 447.827C365.045 449.048 368.282 450.065 370.534 450.777C371.659 451.133 372.539 451.412 373.137 451.603C373.436 451.698 373.664 451.771 373.818 451.82L373.992 451.876L374.036 451.89L374.047 451.894L374.05 451.895C374.05 451.895 374.05 451.895 374.055 451.88C374.064 451.855 374.084 451.791 374.139 451.621L374.051 451.895Z" fill="#FF9581" stroke="white" stroke-width="0.640852"/>
<path d="M373.991 451.851L374.424 452.014V451.551V451.513V451.466L374.411 451.42C374.285 451.005 373.632 448.598 372.579 444.719C366.781 423.356 348.858 357.318 340.108 332.932C339.831 332.134 339.532 331.327 339.228 330.509L339.19 330.407C338.898 329.62 338.601 328.821 338.314 328.004L338.314 328.004L338.312 327.999C335.337 320.017 331.254 309.479 326.742 298.097L326.735 298.079L326.726 298.063L326.69 297.996C324.841 293.335 322.914 288.516 320.986 283.693C320.318 282.022 319.65 280.35 318.984 278.684V278.645L318.961 278.588C313.293 264.504 307.696 250.761 303.517 240.538C301.427 235.427 299.692 231.195 298.479 228.242C297.872 226.765 297.396 225.608 297.072 224.82L296.795 224.147C312.307 226.832 327.784 235.203 353.076 261.747C365.842 275.156 398.83 317.139 428.277 363.352C443 386.456 456.831 410.609 466.805 432.768C476.785 454.939 482.882 475.07 482.184 490.148C481.341 508.397 469.498 525.245 454.492 537.75C439.486 550.256 421.389 558.359 408.146 559.17C396.69 559.865 379.477 557.883 360.078 554.509C340.687 551.136 319.139 546.377 299.023 541.53C278.908 536.684 260.23 531.75 246.58 528.027C239.755 526.166 234.188 524.608 230.327 523.515C228.396 522.969 226.892 522.539 225.871 522.245C225.36 522.099 224.97 521.986 224.708 521.91L224.686 521.904L278.006 419.183L278.014 419.186L278.8 419.453L281.783 420.465C284.355 421.338 288.031 422.587 292.45 424.087C301.288 427.088 313.096 431.099 324.979 435.138C348.751 443.218 372.806 451.405 373.991 451.851Z" fill="black" stroke="white" stroke-width="0.640852"/>
<path d="M271.246 477.702L271.246 477.703C269.541 480.947 267.825 484.188 266.109 487.43C263.963 491.484 261.816 495.539 259.691 499.601C256.026 506.598 252.256 513.762 247.856 520.305C250.59 512.477 254.404 504.834 258.19 497.441C261.881 490.246 265.622 483.078 269.51 475.981L269.51 475.981C273.476 468.733 277.481 461.507 281.587 454.345C281.748 454.063 281.91 453.782 282.071 453.501C285.629 447.295 289.21 441.049 293.429 435.292C290.81 441.351 287.634 447.185 284.466 453.006C283.867 454.107 283.269 455.207 282.674 456.308C278.829 463.422 275.015 470.549 271.246 477.702ZM294.075 433.89L294.075 433.889L294.075 433.89ZM247.538 520.251L247.825 520.351L247.826 520.351L247.538 520.251Z" fill="#2B454E" stroke="white" stroke-width="0.640852"/>
<path d="M402.135 466.074L374.392 451.362C374.229 450.802 373.587 448.439 372.579 444.726C366.782 423.364 348.859 357.325 340.108 332.939C339.831 332.141 339.532 331.334 339.228 330.515L339.19 330.413C338.898 329.626 338.601 328.828 338.314 328.011L338.314 328.011L338.312 328.005C336.398 322.871 334.026 316.678 331.376 309.884L402.135 466.074Z" fill="#1C1C1C" stroke="white" stroke-width="0.640852"/>
<path d="M401.202 463.532L401.202 463.532C409.442 468.193 417.618 473.241 425.25 478.849C422.119 477.188 418.997 475.504 415.874 473.821C410.56 470.956 405.242 468.089 399.872 465.327L399.872 465.327C395.325 462.989 390.816 460.581 386.325 458.134L386.325 458.134C384.812 457.31 383.297 456.422 381.773 455.529C379.253 454.051 376.708 452.559 374.102 451.317C376.244 452.25 378.437 453.076 380.625 453.897L380.751 453.944C383.185 454.859 385.611 455.77 387.97 456.823C392.491 458.844 396.891 461.089 401.202 463.532Z" fill="#1C1C1C" stroke="white" stroke-width="0.640852"/>
<path d="M357.695 411.324C357.695 411.324 357.695 411.324 357.666 411.005L357.695 411.324ZM357.695 411.324L357.355 411.355L357.346 411.015L357.346 411.014V411.014M357.695 411.324L357.346 411.014M357.346 411.014L357.346 411.014L357.346 411.007C357.345 411 357.345 410.989 357.343 410.973C357.341 410.94 357.336 410.89 357.326 410.823C357.307 410.688 357.271 410.487 357.202 410.233C357.062 409.723 356.79 408.996 356.256 408.148C355.19 406.457 353.07 404.267 348.846 402.383C345.311 400.806 340.162 400.045 334.092 399.883C328.032 399.721 321.087 400.156 313.982 400.946C299.773 402.527 284.952 405.528 275.339 408.002C248.041 415.03 220.816 424.942 200.159 433.145C189.831 437.246 181.147 440.92 174.918 443.591C173.337 444.269 171.913 444.884 170.661 445.424C169.447 445.947 168.394 446.401 167.516 446.776C166.623 447.158 165.907 447.46 165.382 447.673C165.119 447.779 164.902 447.864 164.734 447.925C164.582 447.981 164.449 448.025 164.356 448.044C164.172 448.094 163.978 448.13 163.818 448.1C163.729 448.083 163.607 448.036 163.525 447.916C163.455 447.813 163.446 447.703 163.456 447.617C163.458 447.521 163.494 447.449 163.508 447.421L163.508 447.421C163.514 447.409 163.521 447.396 163.527 447.386V447.381L163.538 447.339C163.594 447.137 164.016 445.97 164.716 444.068C165.42 442.154 166.413 439.473 167.62 436.22C169.314 431.66 171.429 425.976 173.763 419.707C174.758 417.034 175.793 414.254 176.852 411.41C183.934 392.378 192.08 370.45 196.543 358.115L196.543 358.115C206.624 330.417 216.503 302.202 222.152 283.23C224.558 275.145 226.475 267.227 227.635 260.207C228.797 253.182 229.196 247.079 228.579 242.614C227.958 238.122 226.338 235.451 223.612 234.97C222.225 234.725 220.494 235.029 218.367 236.026C216.242 237.021 213.748 238.697 210.849 241.154C188.925 259.772 153.696 304.151 122.053 352.894C90.4081 401.64 62.3963 454.68 54.8635 490.607L54.5731 490.546L54.8635 490.607C51.055 508.746 53.7113 527.393 63.0128 541.45C72.3062 555.493 88.2545 564.988 111.115 564.803C118.629 564.736 129.566 562.018 142.766 557.385C155.956 552.756 171.374 546.226 187.837 538.56C220.761 523.229 257.843 503.362 289.602 485.091C291.691 483.886 294.026 483.445 296.877 482.907L296.955 482.892C299.852 482.345 303.327 481.684 307.747 480.041C316.586 476.756 329.236 469.53 348.494 451.376L348.714 451.609L348.494 451.376C349.36 450.56 350.815 450.078 352.637 449.823C354.473 449.565 356.739 449.53 359.285 449.654C364.38 449.903 370.643 450.794 376.92 451.866C381.637 452.672 386.371 453.581 390.63 454.399C392.04 454.669 393.398 454.93 394.686 455.174C397.277 455.664 399.584 456.085 401.468 456.381C403.121 456.64 404.43 456.8 405.313 456.828C405.307 456.775 405.299 456.717 405.29 456.654C405.242 456.312 405.163 455.82 405.036 455.22C404.781 454.019 404.339 452.392 403.585 450.683C402.076 447.262 399.339 443.553 394.407 442.235L394.187 442.177L394.17 441.95L394.17 441.948L394.169 441.938C394.168 441.929 394.167 441.914 394.165 441.895C394.161 441.856 394.155 441.797 394.145 441.72C394.125 441.566 394.092 441.338 394.038 441.047C393.929 440.464 393.736 439.631 393.399 438.638C392.726 436.65 391.48 434.023 389.189 431.47C387.291 429.358 384.502 428.031 382.16 427.232C380.992 426.833 379.945 426.569 379.19 426.405C378.813 426.323 378.509 426.266 378.301 426.229C378.196 426.211 378.116 426.198 378.062 426.189C378.035 426.185 378.014 426.182 378.001 426.18L377.986 426.178L377.982 426.177L377.982 426.177L377.771 426.148L377.716 425.942L357.346 411.014Z" fill="white" stroke="white" stroke-width="0.640852"/>
<path d="M324.42 411.706C324.404 411.708 324.388 411.71 324.371 411.712C324.364 411.712 324.361 411.712 324.361 411.712C324.361 411.712 324.363 411.712 324.367 411.713C324.368 411.714 324.37 411.715 324.372 411.715L324.42 411.706ZM324.42 411.706L324.368 411.409L324.42 411.706ZM341.509 409.806L341.509 409.806C345.718 409.745 349.765 410.02 353.856 410.544C349.654 410.539 345.429 410.642 341.256 410.781C340.652 410.801 340.046 410.82 339.44 410.839C334.533 410.996 329.588 411.154 324.694 411.677C330.289 410.699 335.833 409.888 341.509 409.806Z" fill="#1A2E35" stroke="white" stroke-width="0.640852"/>
<mask id="path-10-inside-1_203_202" fill="white">
<path d="M377.866 425.527C367.92 422.797 359.993 421.284 347.502 422.848C347.099 422.899 347.131 423.495 347.528 423.47C359.397 422.733 367.138 423.937 377.847 425.738C377.968 425.764 377.975 425.559 377.866 425.527Z"/>
</mask>
<path d="M377.866 425.527C367.92 422.797 359.993 421.284 347.502 422.848C347.099 422.899 347.131 423.495 347.528 423.47C359.397 422.733 367.138 423.937 377.847 425.738C377.968 425.764 377.975 425.559 377.866 425.527Z" fill="#1A2E35"/>
<path d="M377.866 425.527L378.047 424.912L378.036 424.909L377.866 425.527ZM347.502 422.848L347.423 422.212L347.422 422.212L347.502 422.848ZM347.528 423.47L347.488 422.83L347.487 422.83L347.528 423.47ZM377.847 425.738L377.979 425.111L377.966 425.108L377.953 425.106L377.847 425.738ZM378.036 424.909C368.043 422.166 360.026 420.634 347.423 422.212L347.582 423.484C359.959 421.934 367.797 423.428 377.696 426.145L378.036 424.909ZM347.422 422.212C346.833 422.287 346.554 422.791 346.575 423.218C346.585 423.429 346.665 423.66 346.844 423.842C347.035 424.034 347.296 424.127 347.569 424.109L347.487 422.83C347.561 422.825 347.669 422.853 347.755 422.939C347.829 423.015 347.852 423.098 347.855 423.157C347.858 423.217 347.842 423.29 347.791 423.358C347.732 423.436 347.649 423.475 347.583 423.484L347.422 422.212ZM347.568 424.109C359.36 423.377 367.042 424.571 377.74 426.37L377.953 425.106C367.235 423.304 359.433 422.088 347.488 422.83L347.568 424.109ZM377.715 426.365C377.938 426.412 378.188 426.356 378.371 426.172C378.527 426.015 378.574 425.825 378.582 425.693C378.596 425.47 378.495 425.044 378.047 424.912L377.685 426.142C377.346 426.042 377.296 425.734 377.303 425.615C377.308 425.535 377.338 425.394 377.462 425.269C377.613 425.117 377.816 425.077 377.979 425.111L377.715 426.365Z" fill="white" mask="url(#path-10-inside-1_203_202)"/>
<path d="M393.077 441.412C383.45 438.947 375.914 437.503 365.832 436.53C376.333 436.542 383.764 437.725 393.077 441.412Z" fill="#1A2E35" stroke="white" stroke-width="0.640852"/>
<path d="M258.03 413.206C256.543 413.691 255.059 414.181 253.576 414.67C250.353 415.733 247.133 416.795 243.896 417.813L243.896 417.813C234.346 420.818 224.802 423.918 215.35 427.226C224.624 423.006 234.021 419.18 243.701 415.988L243.701 415.987C248.562 414.382 253.513 413.032 258.481 411.81C259.549 411.547 260.62 411.272 261.693 410.996C265.296 410.07 268.923 409.137 272.556 408.656C270.216 409.54 267.805 410.279 265.376 410.994C264.85 411.149 264.323 411.302 263.796 411.456C261.866 412.019 259.932 412.583 258.03 413.206ZM258.03 413.206C258.03 413.206 258.029 413.206 258.029 413.206L258.129 413.511L258.03 413.206C258.03 413.206 258.03 413.206 258.03 413.206ZM215.17 427.289C215.166 427.291 215.161 427.293 215.157 427.294C215.149 427.297 215.145 427.297 215.145 427.297C215.145 427.297 215.146 427.297 215.148 427.297C215.151 427.297 215.154 427.298 215.158 427.299L215.17 427.289ZM215.17 427.289L215.045 427.013L215.17 427.289Z" fill="#1A2E35" stroke="white" stroke-width="0.640852"/>
<path d="M305.893 511.551L305.805 511.582C305.506 511.689 305.063 511.849 304.482 512.057C303.321 512.473 301.615 513.083 299.431 513.861C295.063 515.417 288.788 517.644 281.156 520.326C265.893 525.691 245.206 532.879 223.509 540.17C201.811 547.461 179.106 554.855 159.807 560.633C140.496 566.414 124.627 570.568 116.584 571.392C84.4237 574.689 47.837 549.355 47.2186 508.986C47.0018 494.798 52.6275 475.596 61.952 453.915C71.2722 432.244 84.2706 408.134 98.7618 384.145C127.745 336.166 162.683 288.698 186.062 262.232C196.77 250.109 208.363 239.65 218.068 232.722C222.921 229.257 227.292 226.683 230.835 225.223C232.608 224.494 234.16 224.048 235.456 223.904C236.754 223.759 237.759 223.921 238.471 224.366L238.471 224.366C239.32 224.896 239.894 225.801 240.214 227.078C240.534 228.358 240.592 229.985 240.426 231.907C240.093 235.75 238.872 240.691 237.184 246.219C235.497 251.743 233.35 257.833 231.171 263.971C231.047 264.321 230.922 264.671 230.798 265.022C228.743 270.81 226.682 276.614 224.98 281.988L225.286 282.085L224.98 281.988C218.331 302.995 203.087 344.398 189.502 380.558C182.71 398.636 176.334 415.401 171.655 427.646C169.316 433.769 167.401 438.761 166.072 442.223C165.407 443.954 164.888 445.303 164.536 446.218L164.134 447.261L164.031 447.527L164.006 447.594L163.999 447.611L163.997 447.615C163.997 447.616 163.997 447.617 164.296 447.732L163.997 447.617L163.723 448.327L164.422 448.026L164.367 447.898C164.422 448.026 164.423 448.026 164.423 448.026L164.425 448.025L164.433 448.022L164.465 448.008L164.59 447.954L165.08 447.744C165.51 447.56 166.143 447.289 166.952 446.942C168.57 446.249 170.896 445.255 173.724 444.049C179.38 441.637 187.046 438.379 195.086 434.995C211.173 428.222 228.738 420.952 234.713 418.928C239.727 417.231 243.361 416.38 245.737 415.953C246.925 415.739 247.798 415.632 248.372 415.577C248.659 415.55 248.871 415.537 249.01 415.53C249.016 415.529 249.023 415.529 249.03 415.529L305.893 511.551Z" fill="black" stroke="white" stroke-width="0.640852"/>
<path d="M248.147 415.719C237.647 418.472 219.178 424.744 208.437 428.932L208.552 429.229L208.437 428.932C189.571 436.29 171.447 445.416 153.659 455.025L153.659 455.025C135.856 464.644 118.259 475.15 101.773 486.921C110.681 479.716 119.693 472.746 129.183 466.339L129.012 466.085L129.183 466.339C146.077 454.931 164.086 445.398 182.808 437.363C192.199 433.333 206.477 427.98 219.516 423.569C226.036 421.364 232.242 419.396 237.371 417.947C242.511 416.494 246.537 415.573 248.715 415.445L248.718 415.445C248.752 415.443 248.872 415.444 249.021 415.457M248.147 415.719L248.228 416.029L248.146 415.719C248.147 415.719 248.147 415.719 248.147 415.719ZM248.147 415.719C248.528 415.619 248.812 415.531 249.021 415.457M249.021 415.457C249.053 415.46 249.086 415.463 249.12 415.467C249.213 415.477 249.304 415.492 249.38 415.509C249.462 415.528 249.503 415.545 249.514 415.552C249.516 415.553 249.517 415.554 249.517 415.554C249.517 415.554 249.407 415.48 249.439 415.328C249.445 415.299 249.456 415.277 249.464 415.264C249.472 415.252 249.478 415.245 249.478 415.245L249.478 415.245C249.478 415.245 249.474 415.248 249.466 415.254C249.457 415.261 249.445 415.27 249.427 415.281C249.348 415.328 249.219 415.387 249.021 415.457Z" fill="#1C1C1C" stroke="white" stroke-width="0.640852"/>
<path d="M211.222 330.894L211.222 330.894C211.233 330.876 211.243 330.867 211.25 330.862C211.257 330.857 211.263 330.854 211.27 330.852C211.285 330.848 211.305 330.849 211.323 330.858C211.342 330.866 211.346 330.875 211.346 330.876C211.346 330.876 211.347 330.877 211.347 330.882C211.347 330.888 211.345 330.901 211.336 330.923C211.232 331.157 211.128 331.39 211.024 331.624C209.283 335.538 207.551 339.433 205.472 343.162C204.125 345.572 202.697 347.942 201.266 350.318C201.087 350.614 200.908 350.911 200.729 351.208L200.711 351.238L200.7 351.271C195.568 366.527 190.243 381.706 184.656 396.808C184.207 398.02 183.759 399.233 183.311 400.445C180.567 407.875 177.823 415.302 174.899 422.659L174.899 422.659C171.859 430.311 168.549 437.8 165.225 445.32C164.853 446.161 164.482 447.002 164.11 447.844C164.697 445.981 165.28 444.119 165.863 442.257C168.333 434.365 170.799 426.49 173.538 418.679L173.538 418.679C185.713 383.915 198.266 349.243 211.792 314.988L211.793 314.987C211.811 314.94 211.838 314.92 211.871 314.908C211.913 314.894 211.975 314.892 212.042 314.913C212.109 314.935 212.154 314.972 212.176 315.004C212.192 315.028 212.202 315.056 212.187 315.105L212.187 315.106C209.419 324.454 206.53 333.737 203.487 342.994L204.078 343.237C204.127 343.139 204.174 343.041 204.221 342.945L204.221 342.945C204.267 342.848 204.313 342.754 204.36 342.66C206.231 338.942 208.418 335.415 210.616 331.871C210.818 331.546 211.02 331.22 211.222 330.894Z" fill="#1C1C1C" stroke="white" stroke-width="0.640852"/>
<path d="M243.163 448.481L243.163 448.481C247.175 455.499 251.206 462.504 255.296 469.484L255.572 469.322L255.296 469.484C257.045 472.469 258.786 475.46 260.529 478.451C262.94 482.592 265.353 486.734 267.786 490.864C271.799 497.675 275.896 504.659 279.132 511.856C273.921 505.397 269.44 498.114 265.165 490.991C261 484.052 256.894 477.089 252.923 470.043L252.644 470.2L252.923 470.043C248.866 462.847 244.843 455.633 240.929 448.362L240.929 448.362C240.802 448.127 240.675 447.892 240.549 447.656C237.128 441.311 233.685 434.923 231.007 428.248C234.767 433.677 238.044 439.458 241.312 445.225C241.928 446.311 242.544 447.397 243.163 448.481Z" fill="#1C1C1C" stroke="white" stroke-width="0.640852"/>
<path d="M299.714 500.671C296.965 495.558 294.2 490.417 291.302 485.492C293.278 488.652 295.477 491.848 297.693 495.068C298.415 496.117 299.138 497.168 299.856 498.222C302.931 502.734 305.911 507.288 308.257 511.878C308.247 511.884 308.237 511.891 308.225 511.898C308.056 512.002 307.785 512.142 307.413 512.316C306.674 512.661 305.577 513.121 304.203 513.67C301.456 514.767 297.623 516.21 293.376 517.779C289.44 519.233 285.147 520.796 281.039 522.292C276.291 524.021 271.79 525.66 268.373 526.936L268.467 527.188L268.373 526.936C245.721 535.401 222.964 543.576 199.907 550.892L200.004 551.198L199.907 550.892C177.294 558.069 154.373 564.812 131.034 569.205L131.032 569.205C130.879 569.235 130.774 569.224 130.713 569.207C130.754 569.178 130.824 569.141 130.937 569.112L130.937 569.112C139.698 566.811 148.437 564.227 157.155 561.648C161.362 560.404 165.564 559.161 169.761 557.952C192.859 551.298 215.642 543.695 238.274 535.671C240.628 534.837 242.993 534.001 245.365 533.162C265.211 526.148 285.596 518.944 304.918 510.966L305.252 510.829L305.076 510.514C303.274 507.29 301.497 503.987 299.714 500.671ZM130.656 569.18C130.656 569.18 130.656 569.18 130.657 569.181C130.656 569.18 130.655 569.18 130.656 569.18Z" fill="#1C1C1C" stroke="white" stroke-width="0.640852"/>
<path d="M269.858 407.417C270.156 407.748 270.394 408.014 270.567 408.209C240.941 415.838 207.023 428.263 191.773 434.23C191.493 434.328 191.228 434.427 190.973 434.522C190.86 434.564 190.749 434.606 190.639 434.646L190.639 434.646L190.633 434.649C184.467 437.072 179.373 439.209 175.467 440.847C175.094 441.004 174.731 441.156 174.379 441.303C172.364 442.148 170.712 442.835 169.439 443.332C168.245 443.798 167.413 444.086 166.93 444.186C166.9 444.168 166.869 444.147 166.836 444.124C166.823 444.115 166.809 444.105 166.793 444.094C166.788 444.09 166.782 444.086 166.776 444.081V444.05L166.643 443.954C165.221 442.928 163.805 442.144 162.39 441.613L162.385 441.611C161.883 441.431 160.869 441.206 159.515 440.93C158.835 440.791 158.057 440.638 157.203 440.469C156.35 440.301 155.422 440.117 154.439 439.919C150.491 439.122 145.6 438.071 140.86 436.71C136.115 435.347 131.543 433.681 128.222 431.66C124.879 429.628 122.918 427.311 123.133 424.674L123.133 424.674C123.349 421.95 124.414 419.964 125.915 418.51C127.422 417.05 129.385 416.112 131.41 415.517C135.466 414.326 139.693 414.536 140.78 414.612L140.871 413.979C139.689 413.72 134.172 412.435 129.764 409.992C127.556 408.769 125.672 407.278 124.727 405.521C124.257 404.649 124.02 403.711 124.087 402.701C124.154 401.689 124.527 400.584 125.312 399.382L125.312 399.381C126.398 397.711 128.404 396.488 130.895 395.607C133.379 394.728 136.299 394.204 139.154 393.899C144.541 393.325 149.645 393.539 151.034 393.597C151.117 393.6 151.186 393.603 151.242 393.605L151.355 392.981L151.331 392.973C150.273 392.625 145.301 390.989 141.349 388.207C139.356 386.804 137.657 385.134 136.832 383.222C136.017 381.332 136.04 379.174 137.556 376.728C138.62 375.013 140.746 373.746 143.453 372.83C146.149 371.917 149.366 371.373 152.537 371.066C158.884 370.452 164.974 370.796 166.203 371.005L166.371 370.389C166.095 370.284 165.595 370.151 164.978 369.987L164.913 369.97C164.299 369.806 163.553 369.608 162.74 369.368C161.053 368.868 159.092 368.19 157.437 367.272C155.771 366.349 154.476 365.218 154.026 363.842C153.585 362.496 153.921 360.806 155.777 358.672L155.777 358.671C156.368 357.99 157.506 357.442 159.159 357.051C160.8 356.664 162.894 356.443 165.334 356.378C170.212 356.247 176.426 356.734 183.059 357.698C196.332 359.627 211.219 363.458 220.362 368.021C233.983 374.821 246.62 384.962 255.857 393.413C260.474 397.636 264.238 401.434 266.848 404.176C268.152 405.547 269.168 406.654 269.858 407.417Z" fill="white" stroke="white" stroke-width="0.640852"/>
<path d="M141.58 414.571L141.579 414.571C141.379 414.546 141.227 414.505 141.118 414.461C141.133 414.459 141.15 414.457 141.167 414.455C141.261 414.444 141.377 414.44 141.518 414.446L141.518 414.446C153.107 414.972 164.12 418.649 173.006 422.902C181.527 426.98 188.072 431.579 191.273 434.411C191.171 434.449 191.072 434.486 190.973 434.523C190.917 434.544 190.861 434.565 190.805 434.585C187.525 432.08 179.998 427.725 170.969 423.684C161.805 419.581 151.055 415.785 141.58 414.571Z" fill="#1A2E35" stroke="white" stroke-width="0.640852"/>
<path d="M152.352 393.695L152.352 393.695C152.242 393.686 152.143 393.684 152.057 393.686C152.105 393.698 152.157 393.71 152.214 393.721L152.352 393.695ZM152.352 393.695C165.559 394.667 175.386 397.08 184.509 401.192C193.553 405.268 201.92 411.018 212.219 418.717L152.352 393.695ZM151.623 393.76C151.623 393.76 151.624 393.76 151.625 393.759C151.624 393.76 151.623 393.76 151.623 393.76Z" fill="#1A2E35" stroke="white" stroke-width="0.640852"/>
<path d="M167.14 370.918L167.14 370.918C167.004 370.882 166.884 370.846 166.779 370.81C166.916 370.816 167.074 370.83 167.253 370.853C190.487 373.907 206.803 381.164 225.709 399.5C225.763 399.554 225.766 399.59 225.766 399.602C225.766 399.619 225.758 399.642 225.736 399.664C225.714 399.687 225.683 399.702 225.649 399.704C225.62 399.706 225.573 399.699 225.513 399.65L225.513 399.65C205.355 383.338 192.148 377.566 167.14 370.918Z" fill="#1A2E35" stroke="white" stroke-width="0.640852"/>
<path d="M292.107 271.075C277.316 276.394 248.587 256.124 236.148 238.475C235.302 237.257 235.738 223.434 235.469 206.605C235.27 196.396 234.802 185.028 233.629 174.691L300.265 183.086C300.265 183.086 296.349 205.484 298.503 223.498C298.701 225.004 299.009 226.388 299.432 227.689C299.477 227.881 299.56 228.112 299.605 228.381C301.842 236.289 306.404 265.922 292.107 271.075Z" fill="white" stroke="white" stroke-width="0.640852" stroke-miterlimit="10"/>
<path d="M299.631 228.375C299.759 228.804 299.887 229.272 299.97 229.83C260.077 228.138 244.902 210.598 235.084 193.769C234.783 187.354 234.36 180.849 233.629 174.691L300.271 183.073C300.271 183.073 296.337 205.49 298.515 223.498C298.689 224.998 299.028 226.363 299.458 227.689C299.502 227.856 299.541 228.118 299.631 228.375Z" fill="black" stroke="white" stroke-width="0.640852" stroke-miterlimit="10"/>
<path d="M206.316 104.793C202.702 128.716 224.536 193.077 242.992 205.426C269.748 223.325 308.699 219.678 322.682 188.623C336.236 158.522 306.296 75.1536 286.134 64.4322C256.437 48.6352 211.655 69.45 206.316 104.793Z" fill="white" stroke="white" stroke-width="1.2817" stroke-miterlimit="10"/>
<path d="M268.036 134.14C268.268 134.771 268.491 135.424 268.691 136.088C268.431 135.413 268.136 134.776 267.823 134.199C267.823 134.199 267.823 134.199 267.823 134.199C267.792 134.141 267.76 134.083 267.728 134.026C267.73 134.012 267.733 133.998 267.736 133.984C267.768 134.005 267.81 134.024 267.863 134.029C267.971 134.041 268.041 133.99 268.064 133.971C268.066 133.976 268.069 133.98 268.071 133.985C268.056 134.022 268.044 134.067 268.039 134.106C268.037 134.123 268.036 134.134 268.036 134.14ZM268.036 134.14C268.034 134.134 268.032 134.129 268.03 134.123C268.035 134.137 268.036 134.146 268.036 134.146C268.036 134.146 268.036 134.144 268.036 134.14ZM267.792 133.824L267.934 133.741L267.793 133.822C267.792 133.823 267.792 133.823 267.792 133.824ZM267.377 146.537C267.907 146.075 268.324 145.554 268.646 144.99C268.272 145.497 267.792 145.933 267.19 146.275C267.145 146.315 267.099 146.354 267.051 146.394C267.074 146.396 267.097 146.403 267.12 146.413C267.179 146.441 267.207 146.484 267.218 146.508C267.227 146.527 267.239 146.572 267.225 146.621C267.277 146.594 267.327 146.566 267.377 146.537Z" fill="black" stroke="white" stroke-width="0.640852"/>
<path d="M262.616 130.815L262.617 130.815C263.973 130.473 265.246 131.006 266.325 132.098C267.406 133.192 268.258 134.822 268.73 136.565C269.203 138.308 269.286 140.127 268.868 141.594C268.454 143.05 267.558 144.139 266.061 144.517C264.533 144.9 263.139 144.38 261.991 143.311C260.836 142.236 259.948 140.62 259.477 138.882C259.005 137.144 258.961 135.32 259.453 133.837C259.94 132.367 260.949 131.234 262.616 130.815Z" fill="black" stroke="white" stroke-width="0.640852"/>
<path d="M297.426 132.52C298.236 133.738 299.238 134.749 300.487 135.349C299.171 134.897 298.084 133.861 297.221 132.521C296.369 131.196 295.756 129.6 295.383 128.053C295.896 129.643 296.555 131.209 297.426 132.52Z" fill="black" stroke="white" stroke-width="0.640852"/>
<path d="M297.372 120.256L297.372 120.256C298.983 119.651 300.458 120.008 301.695 120.94C302.943 121.879 303.945 123.404 304.546 125.102C305.147 126.8 305.336 128.634 304.997 130.174C304.66 131.706 303.809 132.926 302.332 133.479L302.331 133.479C300.888 134.022 299.533 133.638 298.365 132.677C297.189 131.71 296.222 130.167 295.619 128.464C295.016 126.762 294.789 124.937 295.055 123.421C295.32 121.909 296.063 120.747 297.372 120.256Z" fill="black" stroke="white" stroke-width="0.640852"/>
<path d="M259.798 121.845L259.798 121.844C260.055 121.656 260.304 121.478 260.546 121.306C262.108 120.191 263.345 119.308 264.025 117.431L259.798 121.845ZM259.798 121.845C259.307 122.205 258.836 122.566 258.372 122.921C257.24 123.789 256.146 124.626 254.891 125.364C253.835 125.982 252.529 125.813 251.573 125.147C250.625 124.486 250.07 123.371 250.451 122.119L250.451 122.119M259.798 121.845L250.451 122.119M250.451 122.119C251.313 119.284 252.777 117.389 255.245 115.729C257.553 114.178 260.136 113.152 262.651 114.337M250.451 122.119L262.651 114.337M262.651 114.337C263.14 114.569 263.588 115.07 263.862 115.671C264.135 116.274 264.209 116.921 264.025 117.431L262.651 114.337Z" fill="black" stroke="white" stroke-width="0.640852"/>
<path d="M294.6 111.074L294.6 111.074C295.214 111.062 295.812 111.064 296.402 111.065C297.818 111.068 299.188 111.071 300.63 110.897C301.843 110.748 302.779 109.822 303.135 108.713C303.488 107.612 303.253 106.389 302.192 105.624L302.192 105.623C299.795 103.888 297.479 103.272 294.51 103.447L294.6 111.074ZM294.6 111.074C294.283 111.08 293.977 111.09 293.68 111.1C291.762 111.162 290.24 111.212 288.557 110.125L288.557 110.125M294.6 111.074L288.557 110.125M288.557 110.125C288.101 109.831 287.768 109.272 287.621 108.627M288.557 110.125L287.621 108.627M287.621 108.627C287.475 107.982 287.529 107.312 287.778 106.831M287.621 108.627L287.778 106.831M287.778 106.831C289.053 104.365 291.731 103.612 294.51 103.447L287.778 106.831Z" fill="black" stroke="white" stroke-width="0.640852"/>
<path d="M282.615 176.306L282.615 176.306C281.706 176.488 280.861 176.266 280.093 175.926C279.596 175.706 279.099 175.42 278.634 175.152C278.471 175.058 278.312 174.966 278.159 174.881C279.142 176.416 280.488 177.577 282.292 177.378L282.615 176.306ZM282.615 176.306C283.45 176.138 284.277 175.735 285.041 175.265C285.629 174.903 286.192 174.494 286.702 174.108M282.615 176.306L286.702 174.108M286.702 174.108C285.927 175.784 284.118 177.176 282.292 177.378L286.702 174.108Z" fill="black" stroke="white" stroke-width="0.640852"/>
<path d="M290.789 163.413C286.755 163.789 282.646 162.791 279.164 159.794C285.793 161.995 290.654 162.479 296.208 160.059L296.401 159.976V159.766C296.401 159.692 296.394 159.632 296.387 159.587C296.383 159.565 296.38 159.546 296.376 159.531C296.376 159.529 296.375 159.526 296.374 159.524C296.295 159.09 295.972 158.182 295.56 157.099C295.24 156.254 294.855 155.278 294.466 154.291C294.344 153.981 294.221 153.671 294.1 153.363C293.592 152.069 293.109 150.823 292.78 149.883C292.616 149.412 292.493 149.026 292.425 148.754C292.408 148.686 292.395 148.628 292.386 148.581C293.211 148.378 294.423 148.36 295.733 148.424C296.716 148.471 297.722 148.562 298.624 148.644C299.022 148.68 299.4 148.714 299.746 148.742L300.227 148.781L300.076 148.322C297.864 141.621 295.15 135.118 292.446 128.637C292.317 128.328 292.188 128.018 292.058 127.709C289.225 120.916 286.429 114.137 284.242 107.146L284.239 107.136L284.235 107.127C284.223 107.094 284.229 107.079 284.233 107.07C284.241 107.054 284.261 107.032 284.295 107.016C284.329 107.001 284.36 107 284.377 107.005C284.388 107.007 284.405 107.014 284.424 107.048L284.428 107.056L284.432 107.063C292.546 120.238 298.234 136.175 303.364 150.547L303.385 150.606C303.385 150.606 303.385 150.606 303.385 150.606C303.408 150.671 303.406 150.708 303.402 150.728C303.398 150.746 303.387 150.771 303.355 150.804C303.279 150.88 303.116 150.965 302.831 151.034C302.272 151.17 301.431 151.202 300.493 151.169C298.63 151.104 296.509 150.791 295.811 150.664L295.263 150.565L295.452 151.089L295.754 150.98L295.452 151.089L295.452 151.089L295.453 151.089L295.454 151.092L295.457 151.103L295.473 151.146L295.532 151.311C295.584 151.455 295.658 151.665 295.751 151.928C295.935 152.454 296.191 153.19 296.474 154.033C297.042 155.72 297.718 157.826 298.161 159.52L298.163 159.528L298.165 159.536L298.282 159.903L298.284 159.914L298.285 159.918L298.285 159.919L298.285 159.919L298.285 159.92L298.286 159.923L298.287 159.927L298.288 159.934L298.291 159.945C298.302 159.976 298.316 160.006 298.599 159.855L298.316 160.006L298.32 160.013C298.381 160.122 298.411 160.214 298.46 160.368L298.467 160.389L298.47 160.4L298.47 160.4C298.506 160.816 298.365 161.134 298.056 161.275L298.049 161.278L298.041 161.282C297.735 161.441 297.474 161.555 297.184 161.682L297.138 161.702L297.124 161.708L297.111 161.715C296.831 161.87 296.512 162.003 296.178 162.106L296.167 162.11L296.156 162.114C294.43 162.79 292.602 163.256 290.791 163.413L290.789 163.413Z" fill="black" stroke="white" stroke-width="0.640852"/>
<path opacity="0.2" d="M206.665 105.094L206.665 105.094C208.019 96.6098 211.805 89.0509 217.192 82.8195C218.351 87.13 220.487 95.6473 222.107 104.003C222.955 108.377 223.66 112.701 224.01 116.351C224.185 118.177 224.27 119.828 224.241 121.231C224.212 122.638 224.068 123.773 223.796 124.576C223.493 125.471 223.142 126.537 222.754 127.719C221.719 130.868 220.413 134.839 219.004 138.586C218.035 141.162 217.021 143.623 216.015 145.629C215.138 147.38 214.284 148.75 213.495 149.556C210.825 140.995 208.736 132.408 207.5 124.726C206.24 116.893 205.872 110.026 206.665 105.094Z" fill="black" stroke="white" stroke-width="0.640852"/>
<path d="M259.103 103.131C266.43 102.254 272.725 97.6935 276.117 91.2502C273.189 98.0214 266.521 103.221 259.211 104.277C252.971 105.176 247.085 102.909 242.525 98.9013C247.224 102.332 253.463 103.805 259.103 103.131L259.103 103.131Z" fill="#1A2E35" stroke="white" stroke-width="0.640852"/>
<path d="M216.12 67.6404L216.121 67.6402C218.175 58.1186 227.39 48.169 239.492 44.3978C250.452 40.9863 261.881 43.258 267.313 49.8238C267.303 49.8467 267.272 49.891 267.206 49.9342C267.14 49.978 267.067 50.0018 267.008 50.0043C266.954 50.0066 266.93 49.9918 266.915 49.9765L266.914 49.9754C263.571 46.5479 258.396 44.4627 252.651 43.9904C241.638 43.0775 230.685 48.119 223.672 56.2185L223.672 56.2186C216.888 64.0594 215.186 73.8966 217.483 81.8416C215.712 77.4025 215.015 72.7468 216.12 67.6404Z" fill="#1A2E35" stroke="white" stroke-width="0.640852"/>
<path d="M318.052 50.3902L318.052 50.3904C321.841 56.0393 323.168 63.2486 322.097 69.9444L322.097 69.9446C320.323 81.078 311.305 89.6732 300.616 91.9359C305.637 90.7476 310.333 88.1573 313.952 84.4721C323.297 74.9585 323.878 59.0412 315.458 48.7529C311.402 43.7947 305.495 40.4581 299.244 39.2337L299.244 39.2337C295.432 38.49 291.709 38.7146 288.072 39.4684C292.78 38.2752 297.563 37.8902 302.517 39.2862L302.518 39.2863C308.78 41.0485 314.425 44.9718 318.052 50.3902ZM277.339 43.1973L277.339 43.1973L277.339 43.1973Z" fill="#1A2E35" stroke="white" stroke-width="0.640852"/>
<path d="M219.823 105.553L219.819 105.571C219.815 105.59 219.809 105.62 219.8 105.661C219.782 105.741 219.754 105.86 219.714 106.014C219.633 106.321 219.504 106.763 219.312 107.3C218.929 108.374 218.296 109.821 217.302 111.312C215.337 114.261 211.963 117.382 206.29 118.149C206.266 118.123 206.237 118.092 206.205 118.058C206.077 117.919 205.89 117.712 205.653 117.444C205.179 116.906 204.508 116.121 203.722 115.129C202.148 113.146 200.115 110.342 198.275 107.059C194.584 100.474 191.716 92.0494 194.739 84.4492L194.739 84.4491C195.579 82.3352 197.342 80.4693 199.554 78.8557C201.762 77.2445 204.39 75.9037 206.922 74.8312C209.452 73.7593 211.875 72.9595 213.667 72.4276C214.562 72.1617 215.299 71.963 215.811 71.8309C216.068 71.7648 216.268 71.7155 216.403 71.6826C216.436 71.6747 216.466 71.6677 216.491 71.6617C216.517 71.6553 216.54 71.65 216.558 71.6459L216.597 71.6368L216.606 71.6346L216.608 71.634L216.609 71.6339L216.538 71.3215L216.609 71.6339L216.803 71.5897L216.85 71.3963L216.85 71.3962L216.85 71.3951L216.851 71.3896L216.857 71.3656C216.863 71.3439 216.871 71.3108 216.883 71.2667C216.907 71.1787 216.945 71.0471 216.998 70.876C217.103 70.5338 217.271 70.0339 217.516 69.4085C218.006 68.1575 218.808 66.4058 220.051 64.412C222.536 60.4253 226.783 55.4706 233.834 51.6145C240.946 47.7269 249.669 46.7175 256.64 46.6879C260.121 46.6732 263.155 46.9028 265.319 47.136C266.401 47.2526 267.264 47.3701 267.857 47.4582C268.153 47.5023 268.381 47.5391 268.535 47.5648C268.612 47.5776 268.671 47.5877 268.71 47.5945L268.753 47.6022L268.764 47.6041L268.767 47.6046L268.767 47.6047L268.825 47.2895L268.767 47.6047L268.935 47.6354L269.054 47.5139L269.054 47.5137L269.055 47.5123L269.061 47.5063L269.086 47.4812C269.109 47.4587 269.143 47.425 269.189 47.3808C269.28 47.2926 269.417 47.1627 269.597 46.9984C269.957 46.6697 270.491 46.203 271.182 45.6545C272.563 44.5573 274.569 43.1348 277.066 41.8349C282.062 39.2343 289 37.1349 296.83 39.0836C307.751 41.8019 314.655 50.4882 316.785 60.3385C318.915 70.1917 316.257 81.1731 308.088 88.4558C302.38 93.5438 294.177 94.4473 287.342 94.0538C283.932 93.8575 280.881 93.3396 278.683 92.8704C277.584 92.636 276.699 92.4139 276.089 92.2506C275.785 92.169 275.549 92.1021 275.389 92.0558C275.31 92.0326 275.249 92.0146 275.209 92.0024L275.164 91.9887L275.153 91.9853L275.15 91.9845L275.15 91.9843L275.054 92.2901L275.15 91.9843L275.036 91.9487L274.926 91.9964C274.782 92.0594 274.596 92.1873 274.393 92.3389C274.181 92.4967 273.921 92.703 273.619 92.9434L273.524 93.0189C272.932 93.4911 272.176 94.0931 271.27 94.756C269.361 96.1535 266.793 97.8163 263.719 99.0767C257.584 101.593 249.434 102.51 240.473 96.4719L240.201 96.2885L240.024 96.5649L240.024 96.565L240.024 96.5651L240.023 96.5665L240.019 96.5726L240.003 96.5986C239.987 96.6218 239.964 96.6567 239.933 96.7024C239.871 96.7938 239.778 96.9283 239.655 97.0987C239.409 97.4395 239.044 97.9233 238.568 98.4919C237.616 99.6298 236.226 101.103 234.473 102.448C230.963 105.14 226.037 107.293 220.244 105.298L219.913 105.827C219.848 105.734 219.819 105.605 219.819 105.586C219.82 105.579 219.821 105.568 219.821 105.564C219.822 105.558 219.823 105.554 219.823 105.553ZM219.823 105.553L219.823 105.552C219.823 105.55 219.823 105.551 219.823 105.553Z" fill="black" stroke="white" stroke-width="0.640852"/>
<path d="M223.092 235.514L235.668 219.849L285.017 266.418L285.372 266.753L285.538 266.294L299.497 227.681L306.456 238.235L310.45 295.124L287.308 273.507L286.976 273.196L286.795 273.614L272.299 307.148C272.257 307.111 272.206 307.065 272.147 307.008C271.791 306.664 271.26 306.047 270.574 305.183C269.207 303.462 267.258 300.807 264.92 297.516C260.245 290.936 254.025 281.833 247.809 272.617C241.593 263.402 235.381 254.078 230.724 247.057C228.396 243.546 226.456 240.612 225.098 238.555C224.419 237.526 223.885 236.717 223.522 236.165L223.106 235.535L223.092 235.514ZM272.19 307.454C272.189 307.46 272.189 307.459 272.19 307.454L272.19 307.454Z" fill="#EDEFEF" stroke="white" stroke-width="0.640852"/>
<path d="M309.019 293.125C309.03 293.135 309.04 293.145 309.05 293.155C309.061 293.165 309.071 293.174 309.079 293.181C309.098 293.198 309.11 293.209 309.12 293.219L309.694 293.793L309.666 292.981C309.578 290.359 309.159 285.256 308.658 279.151C308.322 275.057 307.949 270.513 307.613 265.963C307.195 260.29 306.836 254.603 306.678 249.757C306.521 244.922 306.566 240.951 306.946 238.661C306.951 238.664 306.955 238.667 306.959 238.671C306.971 238.681 306.972 238.689 306.972 238.69L307.289 238.642M309.019 293.125L310.442 267.236C310.167 264.607 309.913 261.969 309.658 259.329C308.992 252.416 308.323 245.487 307.289 238.642M309.019 293.125C308.52 292.643 303.044 287.789 297.655 283.081C294.96 280.727 292.292 278.413 290.285 276.708C289.281 275.855 288.445 275.155 287.855 274.68C287.579 274.457 287.36 274.286 287.204 274.172C285.535 277.053 282.18 284.269 279.11 291.141C277.526 294.686 276.021 298.132 274.868 300.83C273.711 303.537 272.917 305.472 272.745 306.009L272.54 306.65L272.171 306.087C264.321 294.097 234.311 250.576 225.14 239.318L225.138 239.317L225.138 239.317C225.129 239.305 225.122 239.3 225.119 239.298C225.116 239.296 225.114 239.296 225.112 239.296C225.11 239.295 225.107 239.296 225.103 239.297L309.019 293.125ZM307.289 238.642L306.972 238.689C308.005 245.526 308.672 252.441 309.339 259.352C309.593 261.993 309.848 264.634 310.123 267.269L306.635 238.577C306.706 238.174 307.238 238.308 307.289 238.642ZM311.939 298.212C311.827 298.139 311.689 298.041 311.524 297.917C310.946 297.48 310.108 296.768 309.084 295.854C307.038 294.028 304.272 291.415 301.391 288.628C295.626 283.05 289.425 276.796 287.644 274.773L287.248 274.323L287.094 274.902C286.722 276.298 285.614 279.235 284.145 282.871C282.679 286.498 280.861 290.802 279.077 294.92C277.293 299.038 275.545 302.968 274.217 305.85C273.553 307.292 272.996 308.469 272.592 309.275C272.403 309.653 272.25 309.945 272.137 310.144C272.065 310.055 271.978 309.945 271.876 309.812C271.555 309.394 271.098 308.771 270.521 307.967C269.367 306.359 267.741 304.036 265.783 301.201C261.868 295.533 256.627 287.823 251.184 279.711C240.294 263.478 228.611 245.652 225.111 239.313L224.831 239.468C224.619 239.084 225.125 238.789 225.388 239.116C234.487 250.285 264.04 293.125 272.218 305.574L311.939 298.212Z" fill="#1C1C1C" stroke="white" stroke-width="0.640852"/>
<path d="M228.394 156.612C228.394 156.612 209.905 137.797 201.125 144.737C192.346 151.678 208.745 180.702 220.812 183.022C232.88 185.342 235.244 174.217 235.244 174.217L228.394 156.612Z" fill="white" stroke="white" stroke-width="1.2817" stroke-miterlimit="10"/>
<path d="M206.058 153.253C206.058 153.253 206.058 153.253 206.057 153.253L206.058 153.253ZM206.058 153.253C206.45 153.225 206.841 153.214 207.232 153.22M206.058 153.253C206.092 153.251 206.139 153.233 206.176 153.19C206.208 153.151 206.217 153.11 206.217 153.081C206.217 153.029 206.182 152.954 206.098 152.935C206.482 153.02 206.86 153.115 207.232 153.22M207.232 153.22C212.217 153.295 217.008 156.124 220.816 160.164C224.92 164.517 227.832 170.227 228.577 175.244L228.585 175.302L228.614 175.353L228.662 175.439L228.708 175.522M207.232 153.22C215.225 155.46 220.421 161.956 224.466 168.818L223.977 169.22C222.571 167.968 221.044 167.111 219.473 166.968C218 166.834 216.439 167.324 214.845 168.809M228.708 175.522L206.028 153.248C214.203 155.065 219.541 161.306 223.693 168.15C223.934 168.337 224.171 168.535 224.403 168.741L224.19 168.981L223.914 169.143C223.761 168.884 223.606 168.625 223.45 168.367C220.735 166.282 217.538 165.654 214.353 168.84M228.708 175.522L228.71 175.526L228.99 175.37M228.708 175.522C228.707 175.521 228.707 175.521 228.706 175.52L228.99 175.37M228.708 175.522C228.766 175.634 228.758 175.715 228.732 175.778C228.702 175.85 228.633 175.926 228.527 175.981C228.302 176.099 228.061 176.062 227.938 175.9M228.708 175.522L222.876 170.397M214.845 168.809C214.739 168.849 214.631 168.89 214.523 168.933L214.569 169.049L214.353 168.84M214.845 168.809C214.757 168.892 214.668 168.977 214.579 169.066L214.578 169.065M214.845 168.809L214.578 169.065M214.353 168.84L214.574 169.061M214.353 168.84C214.173 169.026 214.423 169.314 214.641 169.231M214.574 169.061L228.894 175.197L228.99 175.37M214.574 169.061L214.641 169.231M214.574 169.061L214.578 169.065M214.641 169.231C217.788 167.987 220.236 168.154 222.876 170.397M214.641 169.231L214.578 169.065M222.876 170.397C224.431 171.717 225.702 173.431 226.933 175.091C227.184 175.429 227.433 175.764 227.682 176.094M222.876 170.397L223.083 170.153C224.669 171.499 225.967 173.249 227.198 174.909C227.446 175.244 227.692 175.576 227.938 175.9M227.682 176.094C228.176 176.741 229.4 176.145 228.99 175.37M227.682 176.094L227.938 175.901C227.938 175.901 227.938 175.9 227.938 175.9M227.682 176.094L227.937 175.9C227.937 175.9 227.937 175.9 227.938 175.9M214.583 169.062L214.573 169.052L214.527 168.931C214.552 168.921 214.575 168.925 214.586 168.929C214.595 168.932 214.598 168.935 214.599 168.937C214.6 168.939 214.611 168.952 214.612 168.981C214.612 168.996 214.61 169.013 214.603 169.029C214.597 169.046 214.589 169.057 214.583 169.062Z" fill="#1A2E35" stroke="white" stroke-width="0.640852"/>
</svg>
